<svg width="19" height="28" viewBox="0 0 19 28" fill="none" xmlns="http://www.w3.org/2000/svg">
<path d="M9.50001 0.666748C4.34535 0.666748 0.166672 4.84542 0.166672 10.0001C0.166672 11.3815 0.467642 12.6962 1.00886 13.8792C1.34595 14.6161 1.72788 15.3403 2.09304 16.03L2.13289 16.1052C2.48948 16.7786 2.82904 17.4198 3.13155 18.0648C3.76012 19.4048 4.16667 20.6373 4.16667 21.8809C4.16667 22.6831 4.817 23.3334 5.61922 23.3334H13.3808C14.183 23.3334 14.8333 22.6831 14.8333 21.8809C14.8333 20.6373 15.2399 19.4048 15.8685 18.0648C16.171 17.4199 16.5105 16.7787 16.8671 16.1053L16.907 16.03C17.2721 15.3403 17.6541 14.6161 17.9912 13.8792C18.5324 12.6962 18.8333 11.3815 18.8333 10.0001C18.8333 4.84542 14.6547 0.666748 9.50001 0.666748Z" fill="white"/>
<path d="M5.50001 24.6667C4.76363 24.6667 4.16667 25.2637 4.16667 26.0001C4.16667 26.7365 4.76363 27.3334 5.50001 27.3334H13.5C14.2364 27.3334 14.8333 26.7365 14.8333 26.0001C14.8333 25.2637 14.2364 24.6667 13.5 24.6667H5.50001Z" fill="white"/>
</svg>
