<svg width="31" height="30" viewBox="0 0 31 30" fill="none" xmlns="http://www.w3.org/2000/svg">
<path d="M1.57591 10.3796C1.09414 11.8322 0.833328 13.3856 0.833328 14.9999C0.833328 20.5391 3.90399 25.3611 8.43594 27.8565L13.7447 15.6889L1.57591 10.3796Z" fill="white"/>
<path d="M2.64345 7.93593L14.1667 12.9636V0.393066C9.19362 0.841211 4.93636 3.77168 2.64345 7.93593Z" fill="white"/>
<path d="M15.5 29.6666C13.8857 29.6666 12.3323 29.4058 10.8796 28.924L16.7107 15.5593C16.7516 15.4708 16.7832 15.377 16.804 15.2793C16.8262 15.1764 16.8357 15.0727 16.8333 14.9702V0.393066C24.3087 1.0667 30.1667 7.34922 30.1667 14.9999C30.1667 23.1001 23.6002 29.6666 15.5 29.6666Z" fill="white"/>
</svg>
