<svg width="33" height="32" viewBox="0 0 33 32" fill="none" xmlns="http://www.w3.org/2000/svg">
<path d="M10.7768 8.3913C11.0267 7.86912 11.1667 7.28428 11.1667 6.66675C11.1667 4.45761 9.37581 2.66675 7.16667 2.66675C4.95753 2.66675 3.16667 4.45761 3.16667 6.66675C3.16667 8.87589 4.95753 10.6667 7.16667 10.6667C7.7842 10.6667 8.36905 10.5268 8.89123 10.2769L10.9379 12.3236C10.2398 13.3775 9.83334 14.6413 9.83334 16.0001C9.83334 17.3589 10.2398 18.6227 10.9379 19.6766L9.19073 21.4237C8.97043 21.3648 8.73888 21.3334 8.50001 21.3334C7.02725 21.3334 5.83334 22.5273 5.83334 24.0001C5.83334 25.4728 7.02725 26.6667 8.50001 26.6667C9.97276 26.6667 11.1667 25.4728 11.1667 24.0001C11.1667 23.7612 11.1353 23.5297 11.0763 23.3094L12.8235 21.5622C13.8774 22.2602 15.1412 22.6667 16.5 22.6667C17.8588 22.6667 19.1226 22.2602 20.1765 21.5622L22.2232 23.6089C21.9733 24.131 21.8333 24.7159 21.8333 25.3334C21.8333 27.5426 23.6242 29.3334 25.8333 29.3334C28.0425 29.3334 29.8333 27.5426 29.8333 25.3334C29.8333 23.1243 28.0425 21.3334 25.8333 21.3334C25.2158 21.3334 24.631 21.4734 24.1088 21.7232L22.0621 19.6766C22.7602 18.6227 23.1667 17.3589 23.1667 16.0001C23.1667 14.6413 22.7602 13.3775 22.0621 12.3236L23.8093 10.5764C24.0296 10.6353 24.2611 10.6667 24.5 10.6667C25.9728 10.6667 27.1667 9.47284 27.1667 8.00008C27.1667 6.52732 25.9728 5.33341 24.5 5.33341C23.0272 5.33341 21.8333 6.52732 21.8333 8.00008C21.8333 8.23896 21.8647 8.4705 21.9237 8.69081L20.1765 10.4379C19.1226 9.73992 17.8588 9.33341 16.5 9.33341C15.1412 9.33341 13.8774 9.73992 12.8235 10.4379L10.7768 8.3913Z" fill="white"/>
</svg>
