<svg width="27" height="30" viewBox="0 0 27 30" fill="none" xmlns="http://www.w3.org/2000/svg">
<path d="M21.5 10.9999C24.4455 10.9999 26.8333 8.6121 26.8333 5.66658C26.8333 2.72107 24.4455 0.333252 21.5 0.333252C18.5544 0.333252 16.1666 2.72107 16.1666 5.66658C16.1666 6.16954 16.2362 6.65624 16.3664 7.11757L9.28867 11.2462C8.32218 10.2708 6.98163 9.66658 5.49996 9.66658C2.55444 9.66658 0.166626 12.0544 0.166626 14.9999C0.166626 17.9454 2.55444 20.3333 5.49996 20.3333C6.98163 20.3333 8.32217 19.7291 9.28867 18.7536L16.3664 22.8823C16.2362 23.3436 16.1666 23.8303 16.1666 24.3333C16.1666 27.2788 18.5544 29.6666 21.5 29.6666C24.4455 29.6666 26.8333 27.2788 26.8333 24.3333C26.8333 21.3877 24.4455 18.9999 21.5 18.9999C20.0183 18.9999 18.6777 19.6041 17.7113 20.5796L10.6335 16.4509C10.7637 15.9896 10.8333 15.5029 10.8333 14.9999C10.8333 14.497 10.7637 14.0103 10.6335 13.5489L17.7113 9.42027C18.6777 10.3957 20.0183 10.9999 21.5 10.9999Z" fill="white"/>
</svg>
