<svg width="25" height="24" viewBox="0 0 25 24" fill="none" xmlns="http://www.w3.org/2000/svg">
<path d="M7.16667 0C3.48477 0 0.5 2.98477 0.5 6.66667C0.5 10.3486 3.48477 13.3333 7.16667 13.3333C10.8486 13.3333 13.8333 10.3486 13.8333 6.66667C13.8333 2.98477 10.8486 0 7.16667 0Z" fill="white"/>
<path d="M22.316 5.76931C21.8115 5.51225 21.2872 5.41716 20.76 5.37409C20.2606 5.33329 19.6543 5.33331 18.9514 5.33333L16.5 5.33334V6.66667C16.5 11.8213 12.3213 16 7.16667 16H5.83334L5.83333 18.4514C5.83331 19.1543 5.83329 19.7606 5.87409 20.26C5.91716 20.7872 6.01225 21.3115 6.26931 21.816C6.6528 22.5686 7.26473 23.1805 8.01737 23.564C8.52188 23.8211 9.04617 23.9162 9.5733 23.9592C10.0727 24 10.679 24 11.3818 24H18.9514C19.6542 24 20.2606 24 20.76 23.9592C21.2872 23.9162 21.8115 23.8211 22.316 23.564C23.0686 23.1805 23.6805 22.5686 24.064 21.816C24.3211 21.3115 24.4162 20.7872 24.4592 20.26C24.5 19.7606 24.5 19.1543 24.5 18.4515V10.882C24.5 10.1792 24.5 9.5727 24.4592 9.0733C24.4162 8.54617 24.3211 8.02188 24.064 7.51737C23.6805 6.76473 23.0686 6.1528 22.316 5.76931Z" fill="white"/>
</svg>
