<svg width="27" height="30" viewBox="0 0 27 30" fill="none" xmlns="http://www.w3.org/2000/svg">
<path d="M14.8334 10.8319C17.1337 10.2398 18.8334 8.1517 18.8334 5.66658C18.8334 2.72107 16.4455 0.333252 13.5 0.333252C10.5545 0.333252 8.16669 2.72107 8.16669 5.66658C8.16669 8.1517 9.86638 10.2398 12.1667 10.8319V13.6666H8.16669C5.95755 13.6666 4.16669 15.4574 4.16669 17.6666V19.1679C1.86638 19.76 0.166687 21.8481 0.166687 24.3333C0.166687 27.2788 2.5545 29.6666 5.50002 29.6666C8.44554 29.6666 10.8334 27.2788 10.8334 24.3333C10.8334 21.8481 9.13366 19.76 6.83335 19.1679V17.6666C6.83335 16.9302 7.43031 16.3333 8.16669 16.3333H18.8334C19.5697 16.3333 20.1667 16.9302 20.1667 17.6666V19.1679C17.8664 19.76 16.1667 21.8481 16.1667 24.3333C16.1667 27.2788 18.5545 29.6666 21.5 29.6666C24.4455 29.6666 26.8334 27.2788 26.8334 24.3333C26.8334 21.8481 25.1337 19.76 22.8334 19.1679V17.6666C22.8334 15.4574 21.0425 13.6666 18.8334 13.6666H14.8334V10.8319Z" fill="white"/>
</svg>
