<svg width="23" height="21" viewBox="0 0 23 21" fill="none" xmlns="http://www.w3.org/2000/svg">
<path d="M17.5572 9.27626L9.35411 17.4793C8.09886 15.2473 6.25278 13.4013 4.02077 12.146L14.3248 1.84194C14.8528 1.31393 15.1169 1.04992 15.4213 0.951C15.6891 0.86399 15.9775 0.86399 16.2453 0.951C16.5498 1.04992 16.8138 1.31393 17.3418 1.84195L19.6582 4.1583C20.1862 4.68632 20.4502 4.95033 20.5491 5.25477C20.6361 5.52256 20.6361 5.81102 20.5491 6.07881C20.4502 6.38325 20.1862 6.64726 19.6582 7.17529L19.4428 7.39065L21.6381 9.58591C22.4191 10.367 22.4191 11.6333 21.6381 12.4143L18.1095 15.9429C17.5888 16.4636 16.7446 16.4636 16.2239 15.9429C15.7032 15.4222 15.7032 14.578 16.2239 14.0573L19.281 11.0001L17.5572 9.27626Z" fill="white"/>
<path d="M2.18147 14.6223L1.18256 17.6191C0.748292 18.9219 0.53116 19.5733 0.68563 20.0064C0.820054 20.3834 1.1167 20.6801 1.49366 20.8145C1.92684 20.9689 2.57825 20.7518 3.88102 20.3176L6.87778 19.3186C7.02876 19.2683 7.14805 19.2285 7.24771 19.1933C6.1637 17.067 4.43307 15.3364 2.30685 14.2524C2.27156 14.3521 2.23179 14.4714 2.18147 14.6223Z" fill="white"/>
</svg>
